<?xml version="1.0" encoding="UTF-8" standalone="no"?>
<svg
   xmlns:dc="http://purl.org/dc/elements/1.1/"
   xmlns:cc="http://creativecommons.org/ns#"
   xmlns:rdf="http://www.w3.org/1999/02/22-rdf-syntax-ns#"
   xmlns:svg="http://www.w3.org/2000/svg"
   xmlns="http://www.w3.org/2000/svg"
   xmlns:sodipodi="http://sodipodi.sourceforge.net/DTD/sodipodi-0.dtd"
   xmlns:inkscape="http://www.inkscape.org/namespaces/inkscape"
   width="326.19351mm"
   height="92.22641mm"
   viewBox="0 0 326.19353 92.226398"
   version="1.1"
   id="svg8"
   inkscape:version="0.92.5 (2060ec1f9f, 2020-04-08)"
   sodipodi:docname="download.svg"
   inkscape:export-filename="/home/ariostas/MEGA/Cornell/Talks/2020-11-03_String_Pheno_Seminar/titleimage.png"
   inkscape:export-xdpi="300"
   inkscape:export-ydpi="300">
  <defs
     id="defs2" />
  <sodipodi:namedview
     id="base"
     pagecolor="#ffffff"
     bordercolor="#666666"
     borderopacity="1.0"
     inkscape:pageopacity="0.0"
     inkscape:pageshadow="2"
     inkscape:zoom="0.70000001"
     inkscape:cx="525.35951"
     inkscape:cy="372.87997"
     inkscape:document-units="mm"
     inkscape:current-layer="layer1"
     showgrid="false"
     inkscape:window-width="1920"
     inkscape:window-height="1016"
     inkscape:window-x="0"
     inkscape:window-y="0"
     inkscape:window-maximized="1"
     inkscape:document-rotation="0" />
  <metadata
     id="metadata5">
    <rdf:RDF>
      <cc:Work
         rdf:about="">
        <dc:format>image/svg+xml</dc:format>
        <dc:type
           rdf:resource="http://purl.org/dc/dcmitype/StillImage" />
        <dc:title></dc:title>
      </cc:Work>
    </rdf:RDF>
  </metadata>
  <g
     inkscape:label="Layer 1"
     inkscape:groupmode="layer"
     id="layer1"
     transform="translate(-36.758211,-9.927034)">
    <path
       style="fill:#3578e5;fill-opacity:1;stroke-width:2.05703974"
       d="m 137.88672,-13.640625 c -89.895368,0 -162.265626,72.370258 -162.265626,162.265625 v 24.03906 c 0,89.89537 72.370258,162.26758 162.265626,162.26758 h 908.32418 c 89.8954,0 162.2676,-72.37221 162.2676,-162.26758 V 148.625 c 0,-89.895367 -72.3722,-162.265625 -162.2676,-162.265625 z M 551.05664,115.26367 c 12.26563,0 22.07031,4.1211 29.41406,12.36328 7.34375,8.20313 11.01563,19.21875 11.01563,33.04688 0,13.78906 -3.67188,24.80469 -11.01563,33.04687 -7.34375,8.20313 -17.14843,12.30469 -29.41406,12.30469 -12.30469,0 -22.14844,-4.10156 -29.53125,-12.30469 -7.34375,-8.20312 -11.01562,-19.21875 -11.01562,-33.04687 0,-13.82813 3.67187,-24.84375 11.01562,-33.04688 7.38281,-8.24218 17.22656,-12.36328 29.53125,-12.36328 z m 365.39063,0 c 12.26562,0 22.07031,4.1211 29.41406,12.36328 7.34375,8.20313 11.01562,19.21875 11.01562,33.04688 0,13.78906 -3.67187,24.80469 -11.01562,33.04687 -7.34375,8.20313 -17.14844,12.30469 -29.41406,12.30469 -12.30469,0 -22.14844,-4.10156 -29.53125,-12.30469 -7.34375,-8.20312 -11.01563,-19.21875 -11.01563,-33.04687 0,-13.82813 3.67188,-24.84375 11.01563,-33.04688 7.38281,-8.24218 17.22656,-12.36328 29.53125,-12.36328 z m -493.24219,1.58203 h 24.3164 c 16.95313,0 29.39454,3.53516 37.32422,10.60547 7.92969,7.03125 11.89453,18.04688 11.89453,33.04688 0,15.07812 -3.98437,26.15234 -11.95312,33.22265 -7.96875,7.07032 -20.39062,10.60547 -37.26563,10.60547 h -24.3164 z m 179.0039,0 h 11.95313 l 18.39844,73.94532 18.33984,-73.94532 h 13.30078 l 18.39844,73.94532 18.33984,-73.94532 h 12.01172 l -21.97265,87.48047 H 676.0957 l -18.45703,-75.9375 -18.63281,75.9375 h -14.88281 z m 126.38672,0 h 15.9375 l 38.78907,73.1836 v -73.1836 h 11.48437 v 87.48047 h -15.9375 l -38.78906,-73.18359 v 73.18359 H 728.5957 Z m 89.76563,0 h 11.83594 v 77.51953 h 42.59765 v 9.96094 h -54.43359 z m 177.48047,0 h 13.418 l 33.3398,87.48047 h -12.3047 l -7.9687,-22.4414 h -39.43362 l -7.96875,22.4414 h -12.48047 z m 59.4727,0 h 24.3164 c 16.9531,0 29.3945,3.53516 37.3242,10.60547 7.9297,7.03125 11.8945,18.04688 11.8945,33.04688 0,15.07812 -3.9844,26.15234 -11.9531,33.22265 -7.9688,7.07032 -20.3906,10.60547 -37.2656,10.60547 h -24.3164 z m -504.25786,8.02735 c -8.59375,0 -15.42969,3.20312 -20.50781,9.60937 -5.03906,6.40625 -7.5586,15.13672 -7.5586,26.19141 0,11.01562 2.51954,19.72656 7.5586,26.13281 5.07812,6.40625 11.91406,9.60938 20.50781,9.60938 8.59375,0 15.39063,-3.20313 20.39063,-9.60938 5.03906,-6.40625 7.55859,-15.11719 7.55859,-26.13281 0,-11.05469 -2.51953,-19.78516 -7.55859,-26.19141 -5,-6.40625 -11.79688,-9.60937 -20.39063,-9.60937 z m 365.39063,0 c -8.59375,0 -15.42969,3.20312 -20.50782,9.60937 -5.03906,6.40625 -7.55859,15.13672 -7.55859,26.19141 0,11.01562 2.51953,19.72656 7.55859,26.13281 5.07813,6.40625 11.91407,9.60938 20.50782,9.60938 8.59375,0 15.39062,-3.20313 20.39062,-9.60938 5.03906,-6.40625 7.55859,-15.11719 7.55859,-26.13281 0,-11.05469 -2.51953,-19.78516 -7.55859,-26.19141 -5,-6.40625 -11.79687,-9.60937 -20.39062,-9.60937 z m -481.40625,1.69922 v 68.02734 h 14.29687 c 12.07031,0 20.89844,-2.73438 26.48438,-8.20313 5.625,-5.46875 8.4375,-14.10156 8.4375,-25.89843 0,-11.71875 -2.8125,-20.29297 -8.4375,-25.72266 -5.58594,-5.46875 -14.41407,-8.20312 -26.48438,-8.20312 z m 632.10938,0 v 68.02734 h 14.2969 c 12.0703,0 20.8984,-2.73438 26.4843,-8.20313 5.625,-5.46875 8.4375,-14.10156 8.4375,-25.89843 0,-11.71875 -2.8125,-20.29297 -8.4375,-25.72266 -5.5859,-5.46875 -14.414,-8.20312 -26.4843,-8.20312 z m -64.6289,1.93359 -16.0547,43.53516 h 32.168 z"
       transform="matrix(0.26458333,0,0,0.26458333,43.208463,13.536116)"
       id="rect865"
       inkscape:connector-curvature="0" />
    <g
       id="g863"
       transform="rotate(180,93.246501,56.375473)">
      <path
         style="fill:#93008c;fill-opacity:1;stroke:#000000;stroke-width:1.5;stroke-miterlimit:4;stroke-dasharray:none;stroke-opacity:1"
         inkscape:transform-center-y="-11.467514"
         inkscape:transform-center-x="1.5166666e-06"
         d="M 93.246507,15.02821 113.32064,49.553043 133.18296,84.200175 93.246506,84.322472 53.310053,84.200173 73.172367,49.553043 Z"
         inkscape:randomized="0"
         inkscape:rounded="0"
         inkscape:flatsided="false"
         sodipodi:arg2="-0.52359878"
         sodipodi:arg1="-1.5707963"
         sodipodi:r2="23.179619"
         sodipodi:r1="46.114643"
         sodipodi:cy="61.142853"
         sodipodi:cx="93.246506"
         sodipodi:sides="3"
         id="path9863"
         sodipodi:type="star" />
      <g
         transform="translate(-14.457585,9.7328898)"
         id="g9810">
        <ellipse
           style="fill:#000000;fill-opacity:1;stroke:#000000;stroke-width:0.95300001;stroke-linecap:square;stroke-miterlimit:4;stroke-dasharray:none;stroke-dashoffset:0;stroke-opacity:1;paint-order:fill markers stroke"
           id="path9804"
           cx="121.23586"
           cy="52.543896"
           rx="4.0632439"
           ry="6.3311014" />
        <ellipse
           ry="6.3311014"
           rx="4.0632439"
           cy="52.543896"
           cx="94.399551"
           id="ellipse9806"
           style="fill:#000000;fill-opacity:1;stroke:#000000;stroke-width:0.95300001;stroke-linecap:square;stroke-miterlimit:4;stroke-dasharray:none;stroke-dashoffset:0;stroke-opacity:1;paint-order:fill markers stroke" />
      </g>
      <path
         sodipodi:open="true"
         sodipodi:arc-type="arc"
         d="M 96.582895,72.194511 A 3.2210937,3.2210937 0 0 1 93.374558,75.41558 3.2210937,3.2210937 0 0 1 90.140809,72.220026"
         sodipodi:end="3.1336716"
         sodipodi:start="0"
         sodipodi:ry="3.2210937"
         sodipodi:rx="3.2210937"
         sodipodi:cy="72.194511"
         sodipodi:cx="93.361801"
         sodipodi:type="arc"
         id="path9816"
         style="fill:none;fill-opacity:1;stroke:#000000;stroke-width:0.87800002;stroke-linecap:square;stroke-miterlimit:4;stroke-dasharray:none;stroke-dashoffset:0;stroke-opacity:1;paint-order:fill markers stroke" />
      <g
         id="g10599">
        <path
           style="fill:none;stroke:#000000;stroke-width:1.5;stroke-linecap:butt;stroke-linejoin:miter;stroke-miterlimit:4;stroke-dasharray:none;stroke-opacity:1"
           d="M 128.5497,75.657143 C 142.15684,69.798512 142.53482,56.00238 142.53482,56.00238"
           id="path10578"
           inkscape:connector-curvature="0" />
        <path
           inkscape:connector-curvature="0"
           id="path10595"
           d="M 57.943302,75.657143 C 44.336162,69.798512 43.958182,56.00238 43.958182,56.00238"
           style="fill:none;stroke:#000000;stroke-width:1.5;stroke-linecap:butt;stroke-linejoin:miter;stroke-miterlimit:4;stroke-dasharray:none;stroke-opacity:1" />
      </g>
      <g
         id="g852">
        <ellipse
           ry="0.68952918"
           rx="0.68754673"
           cy="59.441925"
           cx="108.81598"
           style="fill:#ffffff;fill-opacity:1;stroke:#000000;stroke-width:0.58040297;stroke-linecap:square;stroke-miterlimit:4;stroke-dasharray:none;stroke-dashoffset:0;stroke-opacity:1;paint-order:fill markers stroke"
           id="path9818" />
        <ellipse
           ry="0.68952918"
           rx="0.68754673"
           cy="59.441925"
           cx="82.022209"
           id="path9820"
           style="fill:#ffffff;fill-opacity:1;stroke:#000000;stroke-width:0.58040297;stroke-linecap:square;stroke-miterlimit:4;stroke-dasharray:none;stroke-dashoffset:0;stroke-opacity:1;paint-order:fill markers stroke" />
      </g>
      <g
         transform="translate(-0.5860845)"
         id="g10632">
        <path
           style="fill:none;stroke:#000000;stroke-width:1.5;stroke-linecap:butt;stroke-linejoin:miter;stroke-miterlimit:4;stroke-dasharray:none;stroke-opacity:1"
           d="m 85.044641,84.199404 v 15.68601"
           id="path10626"
           inkscape:connector-curvature="0" />
        <path
           inkscape:connector-curvature="0"
           id="path10628"
           d="m 102.62053,84.199404 v 15.68601"
           style="fill:none;stroke:#000000;stroke-width:1.5;stroke-linecap:butt;stroke-linejoin:miter;stroke-miterlimit:4;stroke-dasharray:none;stroke-opacity:1" />
      </g>
    </g>
  </g>
</svg>
